<?xml version="1.0" standalone="no"?>
<!DOCTYPE svg PUBLIC "-//W3C//DTD SVG 1.1//EN" "http://www.w3.org/Graphics/SVG/1.1/DTD/svg11.dtd" >
<!--
2016-8-25: Created.
-->
<svg xmlns="http://www.w3.org/2000/svg">
<metadata>
Created by FontForge 20120731 at Thu Aug 25 14:31:54 2016
 By yhd,,,
Created by yhd,,, with FontForge 2.0 (http://fontforge.sf.net)
</metadata>
<defs>
<font id="index" horiz-adv-x="512" >
  <font-face 
    font-family="index"
    font-weight="500"
    font-stretch="normal"
    units-per-em="512"
    panose-1="2 0 6 3 0 0 0 0 0 0"
    ascent="448"
    descent="-64"
    bbox="-12.8594 -64.0479 512.009 448.037"
    underline-thickness="25.6"
    underline-position="-51.2"
    unicode-range="U+0020-F120"
  />
    <missing-glyph />
    <glyph glyph-name="space" unicode=" " horiz-adv-x="200" 
 />
    <glyph glyph-name="uniF11A" unicode="&#xf11a;" 
d="M469.333 320.074h-426.666c-11.7764 0 -21.334 9.55762 -21.334 21.334c0 11.7754 9.55762 21.333 21.334 21.333h426.666c11.7764 0 21.334 -9.55762 21.334 -21.333c0 -11.7764 -9.54688 -21.334 -21.334 -21.334zM469.333 170.667h-426.666
c-11.7764 0 -21.334 9.55664 -21.334 21.333s9.55762 21.333 21.334 21.333h426.666c11.7764 0 21.334 -9.55664 21.334 -21.333s-9.54688 -21.333 -21.334 -21.333zM469.333 21.4082h-426.666c-11.7764 0 -21.334 9.55664 -21.334 21.333s9.55762 21.333 21.334 21.333
h426.666c11.7764 0 21.334 -9.55664 21.334 -21.333s-9.54688 -21.333 -21.334 -21.333z" />
    <glyph glyph-name="uniF10B" unicode="&#xf10b;" 
d="M384.021 402.016l-207.296 -210.016l207.296 -210.016l-29.6006 -30.0059l-236.917 240.021l236.917 240.021z" />
    <glyph glyph-name="uniF118" unicode="&#xf118;" 
d="M508.541 194.337l-249.579 -248.991c-12.5469 -12.4736 -32.8574 -12.4736 -45.3682 0l-204.211 203.733c-12.5107 12.5098 -12.5107 32.7842 0 45.2578l249.542 248.99s4.63672 4.70996 12.4004 4.70996h171.758c33.6309 0 68.8799 -29.7305 68.8799 -68.8066v-171.28
c0.0371094 0 -0.220703 -8.49902 -3.42188 -13.6133zM383.218 374.41c-30.4658 0 -55.1924 -24.7256 -55.1924 -55.1924c0 -30.4658 24.7266 -55.1924 55.1924 -55.1924c30.4668 0 55.1924 24.7266 55.1924 55.1924c0 30.4668 -24.7256 55.1924 -55.1924 55.1924z" />
    <glyph glyph-name="uniF113" unicode="&#xf113;" 
d="M164.56 209.046c-8.80859 0 -15.9297 7.13672 -15.9297 15.9453c0 8.79395 7.12109 15.9307 15.9297 15.9307h54.1162l-51.3594 51.7422c-6.19727 6.24414 -6.19727 16.376 0 22.6201c6.19629 6.26074 16.248 6.26074 22.4453 0l68.166 -68.6914l68.166 68.6914
c6.19629 6.26074 16.248 6.26074 22.4453 0c6.19727 -6.24414 6.19727 -16.376 0 -22.6201l-51.3594 -51.7578h58.5439c8.80957 0 15.9307 -7.13672 15.9307 -15.9307c0 -8.79297 -7.12109 -15.9463 -15.9307 -15.9463h-79.6514v-31.8447h79.6514
c8.80957 0 15.9307 -7.13672 15.9307 -15.9297c0 -8.79395 -7.12109 -15.9307 -15.9307 -15.9307h-79.6514v-63.7217c0 -8.79297 -7.12109 -15.9297 -15.9307 -15.9297s-15.9297 7.13672 -15.9297 15.9297v63.7217h-79.6523c-8.80859 0 -15.9297 7.13672 -15.9297 15.9307
c0 8.79297 7.12109 15.9297 15.9297 15.9297h79.6523v31.8613h-79.6523zM478.642 157.463c-14.3213 -142.051 -205.628 -217.337 -213.753 -220.459c-1.81543 -0.701172 -3.74316 -1.05176 -5.6709 -1.05176c-1.94336 0 -6.30859 0.366211 -8.1084 1.05176
c-8.15625 3.1377 -199.575 78.4082 -213.864 220.459l-1.7207 16.8867c-0.875977 8.79297 5.48047 16.6465 14.21 17.5391c8.87305 0.860352 16.5195 -5.54395 17.3955 -14.3213l1.7207 -16.8545c11.2471 -111.767 161.199 -180.188 189.125 -191.992
c27.9258 11.8359 177.83 80.4482 189.061 191.992c6.41992 63.6738 11.7568 114.491 15.5801 150.271c-51.5508 6.70703 -92.874 47.4248 -99.7871 98.5449c-18.0977 2.4375 -55.5332 6.46777 -104.838 6.46777c-49.3203 0 -86.7881 -4.03027 -104.933 -6.46777
c-6.88184 -51.1367 -48.2217 -91.8545 -99.835 -98.5449c1.19434 -11.0557 2.5166 -23.5293 3.96582 -37.3252c0.924805 -8.77734 -5.38379 -16.6621 -14.1143 -17.6025c-8.74512 -0.875977 -16.5352 5.43262 -17.459 14.2256
c-2.23047 21.2988 -4.18945 39.4912 -5.7666 54.0518c-0.509766 4.69922 1.06641 9.38281 4.31641 12.792c3.25 3.4248 7.80566 5.25684 12.4893 4.92285h0.0644531c47.376 0 85.0674 36.6074 85.6094 81.6104c0.0957031 7.66309 5.55957 14.1943 13.0625 15.5645
c1.95996 0.350586 49.2246 8.77734 122.6 8.77734s120.576 -8.42676 122.552 -8.79395c7.4873 -1.35352 12.9678 -7.86914 13.0469 -15.5312c0.557617 -45.0352 38.249 -81.6592 84.0488 -81.6592c4.69922 0.334961 10.0518 -1.49707 13.2695 -4.89062
c3.25 -3.4248 5.60742 -8.09277 5.09766 -12.7764c-3.87109 -35.7793 -9.89258 -92.5547 -17.3643 -166.886z" />
    <glyph glyph-name="uniF100" unicode="&#xf100;" 
d="M256 -64c-141.166 0 -256 114.834 -256 256s114.834 256 256 256c10.0938 0 18.2861 -8.17383 18.2861 -18.2861c0 -10.0938 -8.19238 -18.2852 -18.2861 -18.2852c-120.996 0 -219.429 -98.4326 -219.429 -219.429c0 -120.997 98.4326 -219.429 219.429 -219.429
c120.997 0 219.429 98.4316 219.429 219.429c0 69.376 -32 133.248 -87.79 175.232c-8.06348 6.07031 -9.67285 17.5352 -3.60254 25.5996c6.07129 8.0459 17.5186 9.69141 25.6006 3.60254c65.042 -48.9326 102.363 -123.447 102.363 -204.435
c0 -141.147 -114.834 -256 -256 -256zM420.571 192c0 -10.0938 -8.19141 -18.2861 -18.2852 -18.2861h-146.286c-10.0938 0 -18.2861 8.19238 -18.2861 18.2861v146.286c0 10.0938 8.19238 18.2852 18.2861 18.2852s18.2861 -8.19141 18.2861 -18.2852v-128h128
c10.0938 0 18.2852 -8.19238 18.2852 -18.2861z" />
    <glyph glyph-name="uniF111" unicode="&#xf111;" 
d="M404.228 -12.583c-3.79297 -5.49121 -9.83691 -8.41406 -15.9805 -8.41406c-3.85156 0 -7.74316 1.16504 -11.1406 3.55469c-8.83008 6.24219 -10.9434 18.5283 -4.7998 27.4375c138.33 199.901 2.68555 360.889 1.30371 362.489
c-7.07227 8.17773 -6.26172 20.6416 1.83691 27.792c8.05859 7.15039 20.3457 6.34082 27.4766 -1.85645c1.58008 -1.83691 156.918 -186.113 1.30371 -411.003zM285.491 43.4766c-3.71387 0 -7.44629 1.06641 -10.7852 3.29883
c-8.96777 6.02441 -11.3779 18.252 -5.41211 27.2988c77.0762 116.938 5.1748 235.239 4.4248 236.404c-5.72852 9.20508 -2.9834 21.3535 6.10352 27.1611c9.16504 5.78711 21.1357 3.02246 26.8643 -6.18262c3.53613 -5.70898 85.9062 -141.294 -4.99805 -279.229
c-3.75293 -5.68945 -9.91602 -8.75098 -16.1973 -8.75098zM210.963 -62.7754c-2.23242 -0.790039 -4.54297 -1.16504 -6.83496 -1.16504c-5.84668 0 -11.5156 2.50879 -15.4072 7.09082l-103.407 121.778h-78.123c-11.082 0 -20.0498 8.80957 -20.0498 19.6934v214.815
c0 10.8633 8.96777 19.6934 20.0498 19.6934h78.123l103.388 121.798c5.43262 6.37988 14.3408 8.71094 22.2617 5.90625c7.9209 -2.8252 13.2148 -10.2324 13.2148 -18.5283v-472.573c0 -8.27637 -5.29395 -15.6836 -13.2148 -18.5088zM184.06 373.945l-73.9365 -87.1104
c-3.81152 -4.48438 -9.46094 -7.0918 -15.4072 -7.0918h-67.457v-175.427h67.457c5.94629 0 11.5957 -2.58789 15.4072 -7.0918l73.9365 -87.1113v363.832z" />
    <glyph glyph-name="uniF115" unicode="&#xf115;" 
d="M181.74 329.198c6.15918 6.23926 16.1455 6.23926 22.3037 0l51.9404 -52.583l51.9395 52.583c6.1582 6.23926 16.1445 6.23926 22.3037 0c6.1582 -6.23926 6.1582 -16.3379 0 -22.5771l-36.165 -36.6152h25.0205c8.71582 0 15.7754 -7.13965 15.7754 -15.9678
s-7.05957 -15.9678 -15.7754 -15.9678h-47.3242v-31.9355h47.3086c8.71582 0 15.7744 -7.15625 15.7744 -15.9844c0 -8.81152 -7.05859 -15.9678 -15.7744 -15.9678h-47.3086v-47.9033c0 -8.82812 -7.05957 -15.9678 -15.7744 -15.9678
c-8.71582 0 -15.7754 7.13965 -15.7754 15.9678v47.9033h-47.3242c-8.71582 0 -15.7754 7.15625 -15.7754 15.9678c0 8.82812 7.05957 15.9844 15.7754 15.9844h47.3242v31.9355h-47.3242c-8.71582 0 -15.7754 7.13965 -15.7754 15.9678s7.05957 15.9678 15.7754 15.9678
h25.0205l-36.165 36.6152c-6.1582 6.23926 -6.1582 16.3379 0 22.5771zM506.773 178.412l-239.968 -224.611c-3.07129 -2.8623 -6.94629 -4.29297 -10.8213 -4.29297c-3.87598 0 -7.75098 1.43066 -10.8066 4.29297l-239.983 224.611
c-4.85645 4.55078 -6.49707 11.6904 -4.10059 17.9775c2.37988 6.27148 8.29688 10.4043 14.9062 10.4043h95.2607v225.318c0 8.78027 7.20312 15.8877 16.0801 15.8877c0.112305 0 0.208984 -0.0644531 0.321289 -0.0644531s0.208984 0.0644531 0.322266 0.0644531h255.983
c0.112305 0 0.208984 -0.0644531 0.321289 -0.0644531c0.113281 0 0.208984 0.0644531 0.322266 0.0644531c8.87598 0 16.0801 -7.2041 16.0801 -16.0801v-176.885c0 -8.87598 -7.2041 -16.0801 -16.0801 -16.0801c-8.87695 0 -16.0811 7.2041 -16.0811 16.0801v160.771
h-225.125v-222.456c0.176758 -0.964844 0.579102 -1.86523 0.579102 -2.87793c0 -9.02148 -7.17188 -16.3379 -16 -16.3379h-70.8506l198.866 -186.114l198.851 186.114h-70.8662c-8.84473 0 -16 7.31641 -16 16.3379c0 9.02051 7.15527 16.3379 16 16.3379h111.983
c6.60938 0 12.5264 -4.13281 14.9062 -10.4209c2.39648 -6.30371 0.755859 -13.4268 -4.10059 -17.9775z" />
    <glyph glyph-name="uniF11C" unicode="&#xf11c;" 
d="M160.526 372.765c5.43262 5.64648 14.2217 5.64648 19.6553 0l157.127 -163.328c5.41895 -5.63184 5.41895 -14.791 0 -20.4229l-157.127 -163.356c-5.43359 -5.63281 -14.2227 -5.63281 -19.6553 0c-5.41895 5.64551 -5.41895 14.791 0 20.4229l147.313 153.131
l-147.313 153.131c-5.41895 5.64551 -5.41895 14.791 0 20.4229z" />
    <glyph glyph-name="uniF11D" unicode="&#xf11d;" 
d="M192.011 213.333h-128.011c-23.5303 0 -42.667 19.1367 -42.667 42.667v128c0 23.5303 19.1367 42.667 42.667 42.667h128c23.5195 0 42.667 -19.1367 42.667 -42.667v-128c0.0107422 -23.5303 -19.1367 -42.667 -42.6562 -42.667zM64 384v-128h128.021l-0.0107422 128
h-128.011zM448 213.333h-128c-23.5195 0 -42.667 19.1367 -42.667 42.667v128c0 23.5303 19.1367 42.667 42.667 42.667h128c23.541 0 42.667 -19.1367 42.667 -42.667v-128c0 -23.5303 -19.1152 -42.667 -42.667 -42.667zM320 384v-128h128.021l-0.0214844 128h-128z
M192.011 -42.667h-128.011c-23.5303 0 -42.667 19.1367 -42.667 42.667v128c0 23.5303 19.1367 42.667 42.667 42.667h128c23.5195 0 42.667 -19.1367 42.667 -42.667v-128c0.0107422 -23.5303 -19.1367 -42.667 -42.6562 -42.667zM64 128v-128h128.021l-0.0214844 128h-128
zM448 -42.667h-128c-23.5195 0 -42.667 19.1367 -42.667 42.667v128c0 23.5303 19.1367 42.667 42.667 42.667h128c23.541 0 42.667 -19.1367 42.667 -42.667v-128c0 -23.5303 -19.1152 -42.667 -42.667 -42.667zM320 128v-128h128.021l-0.0214844 128h-128z" />
    <glyph glyph-name="uniF120" unicode="&#xf120;" 
d="M437.418 320.537c10.2363 -24.2012 15.4258 -49.8848 15.4248 -76.3369c0 -26.6924 -9.57227 -57.3535 -29.2646 -93.7363c-14.0527 -25.9639 -33.415 -54.9805 -57.5488 -86.2412c-40.2695 -52.1572 -80.1055 -92.9014 -81.7812 -94.6104l-27.4902 -28.0137
l-27.4883 28.0107c-1.69434 1.72949 -41.7012 42.6992 -81.7822 94.6123c-24.1279 31.252 -43.4922 60.2676 -57.5527 86.2402c-19.6904 36.3828 -29.2627 67.0439 -29.2627 93.7383c0 26.458 5.19043 52.1416 15.4258 76.3379
c9.87793 23.3545 24.0107 44.3213 42.0059 62.3164c17.9961 17.9961 38.9619 32.1289 62.3164 42.0059c24.1953 10.2354 49.8809 15.4248 76.3379 15.4248s52.1396 -5.18945 76.3379 -15.4258c23.3506 -9.875 44.3164 -24.0078 62.3154 -42.0049
c17.9971 -18.001 32.1309 -38.9668 42.0068 -62.3174zM395.437 165.696c17.0967 31.5859 25.4072 57.2656 25.4082 78.5039c0 22.1475 -4.33984 43.6367 -12.8984 63.8721c-8.2627 19.5361 -20.0938 37.084 -35.1631 52.1553
c-15.0684 15.0674 -32.6152 26.8975 -52.1523 35.1602c-20.2334 8.55859 -41.7227 12.8975 -63.8721 12.8975c-22.1514 0 -43.6416 -4.33887 -63.8721 -12.8965c-19.541 -8.26465 -37.0879 -20.0957 -52.1553 -35.1621
c-15.0664 -15.0664 -26.8965 -32.6133 -35.1611 -52.1543c-8.55859 -20.2314 -12.8975 -41.7207 -12.8975 -63.8721c0 -21.2412 8.30957 -46.9199 25.4043 -78.5039c13.2432 -24.4629 31.6611 -52.0244 54.7402 -81.918c38.9434 -50.4404 77.6719 -90.1035 79.3018 -91.7676
l4.63867 -4.72559l4.64844 4.7373c1.61816 1.65039 40.1689 41.0801 79.2939 91.7559c23.084 29.9023 41.501 57.4629 54.7363 81.918zM224.533 276.267c0 21.3333 10.6667 32 32 32c21.3333 0 32 -10.6667 32 -32c0 -21.3333 -10.6667 -32 -32 -32
c-21.3333 0 -32 10.6667 -32 32z" />
    <glyph glyph-name="uniF117" unicode="&#xf117;" 
d="M151.272 5.81836c19.2471 0 34.9092 -15.6748 34.9092 -34.9326c0 -19.2344 -15.6621 -34.8857 -34.9092 -34.8857c-19.2461 0 -34.9092 15.6514 -34.9092 34.8857c0 19.2578 15.6631 34.9326 34.9092 34.9326zM151.272 -40.7275
c6.41211 0 11.6367 5.21387 11.6367 11.6133c0 6.42285 -5.22461 11.6602 -11.6367 11.6602c-6.41113 0 -11.6357 -5.2373 -11.6357 -11.6602c0 -6.39941 5.22461 -11.6133 11.6357 -11.6133zM360.728 5.81836c19.2461 0 34.9092 -15.6748 34.9092 -34.9326
c0 -19.2344 -15.6631 -34.8857 -34.9092 -34.8857c-19.2471 0 -34.9092 15.6514 -34.9092 34.8857c0 19.2578 15.6621 34.9326 34.9092 34.9326zM360.728 -40.7275c6.41113 0 11.6357 5.21387 11.6357 11.6133c0 6.42285 -5.22461 11.6602 -11.6357 11.6602
c-6.41211 0 -11.6367 -5.2373 -11.6367 -11.6602c0 -6.39941 5.22461 -11.6133 11.6367 -11.6133zM508.951 296.879c4.70117 -8.13379 3.92188 -18.793 -2.10645 -29.2539l-80.6162 -139.637c-9.57715 -16.582 -29.6963 -29.0908 -46.79 -29.0908h-237.51l-23.5166 -40.7275
c-1.71094 -2.95508 -2.06055 -4.96875 -2.04883 -5.81836c0.186523 0.117188 0.837891 0 1.80371 0h289.105c6.42383 0 11.6367 -5.21289 11.6367 -11.6357c0 -6.42383 -5.21289 -11.6367 -11.6367 -11.6367h-289.129c-9.78613 0 -17.8145 4.18945 -22.0273 11.4854
c-4.68945 8.13379 -3.9209 18.793 2.11816 29.2422l26.8799 46.5449c0.186523 0.314453 0.488281 0.500977 0.698242 0.791992l-78.4873 292.934c-2.08301 7.80762 -10.624 14.6504 -18.2695 14.6504h-17.4189c-6.42383 0 -11.6367 5.21289 -11.6367 11.6357
c0 6.42383 5.21289 11.6367 11.6367 11.6367h17.4189c18.0596 0 35.957 -14.0098 40.751 -31.8955l28.8701 -107.741h87.5049c6.42383 0 11.6367 -5.21289 11.6367 -11.6357c0 -6.42383 -5.21289 -11.6367 -11.6367 -11.6367h-81.2686l43.6484 -162.909h230.865
c7.81934 0 20.8643 7.4707 26.6357 17.4551l80.6172 139.636c1.70996 2.95605 2.05957 4.96875 2.04785 5.81836c-0.186523 -0.104492 -0.837891 0 -1.80371 0h-126.196h-0.0234375c-19.2354 -0.0117188 -34.8857 -15.6621 -34.8857 -34.9092v0h46.5449
c4.77148 0 9.07715 -2.9209 10.8223 -7.36523c1.75684 -4.45703 0.605469 -9.51855 -2.88574 -12.7773l-87.2725 -81.4541c-2.23438 -2.08301 -5.08594 -3.13086 -7.93652 -3.13086s-5.70215 1.04785 -7.93555 3.13086l-87.2734 81.4541
c-3.49023 3.27051 -4.64258 8.33203 -2.88574 12.7773c1.74609 4.44434 6.03906 7.36523 10.8223 7.36523h46.5449v104.728c0 6.42285 5.21387 11.6367 11.6367 11.6367s11.6367 -5.21387 11.6367 -11.6367v-116.363v0v0c0 -6.42383 -5.21387 -11.6367 -11.6367 -11.6367
h-28.6602l57.751 -53.8994l57.751 53.8994h-28.6602c-6.42285 0 -11.6357 5.21289 -11.6357 11.6367v0v0v11.6357c0 32.082 26.0996 58.1816 58.1816 58.1816h0.0234375h126.173c9.78613 0 17.8154 -4.18848 22.0273 -11.4844z" />
    <glyph glyph-name="uniF101" unicode="&#xf101;" 
d="M507.603 180.977c-5.87305 -5.8877 -15.4053 -5.8877 -21.293 0l-230.099 230.431l-230.506 -230.445c-5.8877 -5.8877 -15.4199 -5.8877 -21.293 0c-2.93652 2.93652 -4.41211 6.79199 -4.41211 10.6465c0 3.85547 1.47559 7.70996 4.41211 10.6465l240.173 240.128
c0.316406 0.376953 0.4375 0.84375 0.798828 1.20508c5.8877 5.8877 15.4199 5.8877 21.293 0l240.911 -241.288c2.93652 -2.95117 4.41211 -6.80566 4.41211 -10.6611c0.0146484 -3.87012 -1.46094 -7.72559 -4.39746 -10.6621z" />
    <glyph glyph-name="uniF112" unicode="&#xf112;" 
d="M507.844 229.65l-232.446 -249.7l-0.418945 -1.11133c-2.46484 -6.54102 -8.97363 -10.6172 -15.9336 -10.6172c-0.273438 0 -0.547852 0.112305 -0.821289 0.128906c-0.225586 0 -0.435547 -0.128906 -0.661133 -0.128906
c-0.515625 0 -0.999023 0.225586 -1.51367 0.273438c-0.5 -0.0322266 -0.983398 -0.273438 -1.49902 -0.273438c-0.225586 0 -0.43457 0.128906 -0.660156 0.128906c-0.274414 0 -0.547852 -0.128906 -0.805664 -0.128906c-6.95996 0 -13.4688 4.07617 -15.9336 10.6172
l-0.418945 1.11133l-232.462 249.7c-5.97754 6.42871 -5.63867 16.5303 0.773438 22.5391v0l88.1738 141.114c1.78809 2.86816 4.5752 4.76855 7.65234 6.05762c2.75488 2.28809 6.13867 3.85059 9.97266 3.85059h306.54c8.78027 0 15.9014 -7.20117 15.9014 -16.1104
s-7.10547 -16.1113 -15.9014 -16.1113h-129.531l70.4531 -112.775h108.216l-28.5811 54.3906c-4.67188 7.7002 -1.73926 17.4639 6.54102 21.8135c8.31348 4.33398 18.7852 1.61133 23.4414 -6.08984l41.2275 -78.459
c0.225586 -0.386719 0.225586 -0.805664 0.418945 -1.20898c3.6084 -5.94434 3.23828 -13.6611 -1.72363 -19.0107zM206.942 58.6836l-60.4951 160.012c-0.93457 2.43262 -1.01562 4.89746 -0.693359 7.29883h-94.5537zM47.543 258.215h106.267l70.4521 112.775h-106.25z
M256.064 359.891l-63.5244 -101.676h127.049zM179.635 225.994l76.4297 -202.143l76.4297 202.143h-152.859zM366.375 225.994c0.322266 -2.40137 0.225586 -4.86621 -0.693359 -7.29883l-60.4951 -159.996l155.727 167.295h-94.5381z" />
    <glyph glyph-name="uniF116" unicode="&#xf116;" 
d="M255.639 -64l-255.639 240.941h90.3525v271.059h331.295v-271.059h90.3525zM345.841 237.146c8.7041 0 15.752 6.83691 15.752 15.2695s-7.04785 15.2695 -15.752 15.2695h-52.2539l63.4883 63.4883c6.11328 6.11328 6.11328 16.0527 0 22.166
c-6.11426 6.11426 -16.0527 6.11426 -22.167 0l-78.9082 -78.9375l-78.9082 78.9082c-6.11426 6.11328 -16.0527 6.11328 -22.167 0c-6.11328 -6.11426 -6.11328 -16.0234 0 -22.167l63.4883 -63.4883h-51.9834c-8.70312 0 -15.751 -6.80664 -15.751 -15.2695
c0 -8.43262 7.04785 -15.2695 15.751 -15.2695h74.542v-29.7559h-74.752c-8.49316 0 -15.3604 -6.83691 -15.3604 -15.2402c0 -8.43262 6.86719 -15.2695 15.3604 -15.2695h74.752v-75.6855c0 -7.89062 6.83594 -14.2451 15.2695 -14.2451
c8.43262 0 15.2695 6.35449 15.2695 14.2451v75.7158h74.9629c8.49316 0 15.3594 6.83691 15.3594 15.2695c0 8.43359 -6.86621 15.2393 -15.3594 15.2393h-74.9629v29.7568h74.3301z" />
    <glyph glyph-name="uniF11E" unicode="&#xf11e;" 
d="M366.123 106.741h-194.998l-27.584 -42.9541h257.185c11.7754 0 21.333 -9.55762 21.333 -21.334c0 -11.7754 -9.55762 -21.333 -21.333 -21.333h-296.245c-7.79785 0 -14.9766 4.25586 -18.7207 11.1035c-3.74414 6.85938 -3.44531 15.1895 0.768555 21.7607
l45.0449 70.1221l-63.584 259.285h-19.6904c-11.7764 0 -21.334 9.55762 -21.334 21.334c0 11.7754 9.55762 21.333 21.334 21.333h36.4268c9.82422 0 18.3779 -6.70898 20.7148 -16.2559l24.8525 -101.333h339.072c7.8291 0 15.0078 -4.27734 18.752 -11.1475
c3.7334 -6.87988 3.40234 -15.2422 -0.853516 -21.8027l-103.242 -159.061c-3.93652 -6.05859 -10.667 -9.71777 -17.8984 -9.71777zM430.08 265.803h-289.322l28.5439 -116.395h185.237zM138.698 -20.2129c0 14.9186 7.45964 22.3779 22.3789 22.3779
c14.9193 4.76837e-07 22.3789 -7.45931 22.3789 -22.3779c0 -14.9193 -7.45964 -22.3789 -22.3789 -22.3789s-22.3789 7.45964 -22.3789 22.3789zM320.021 -20.2129c0 14.9186 7.45963 22.3779 22.3789 22.3779c14.9186 4.76837e-07 22.3779 -7.45931 22.3779 -22.3779
c0 -14.9193 -7.45932 -22.3789 -22.3779 -22.3789c-14.9193 0 -22.3789 7.45964 -22.3789 22.3789z" />
    <glyph glyph-name="uniF11B" unicode="&#xf11b;" 
d="M481.322 12.0322c12.4912 -12.4805 12.4912 -32.7471 -0.00976562 -45.248c-6.25098 -6.25098 -14.4434 -9.37598 -22.624 -9.37598c-8.18164 0 -16.374 3.125 -22.624 9.37598l-128 128c-0.640625 0.639648 -1.10938 1.38672 -1.68555 2.06934
c-29.4189 -20.5869 -65.1201 -32.7793 -103.681 -32.7793c-99.9893 0 -181.333 81.3447 -181.333 181.334s81.3438 181.333 181.333 181.333c100 0 181.334 -81.3438 181.334 -181.333c0 -38.5605 -12.1816 -74.2617 -32.7793 -103.681
c0.682617 -0.585938 1.41895 -1.04492 2.06934 -1.69531zM64.0215 245.419c0 -76.4697 62.208 -138.678 138.666 -138.667c76.459 0 138.667 62.208 138.667 138.667c0 76.458 -62.2188 138.666 -138.667 138.666c-76.458 0 -138.666 -62.208 -138.666 -138.666z" />
    <glyph glyph-name="uniF114" unicode="&#xf114;" 
d="M512 254.219c0 -107.269 -80.459 -179.833 -150.557 -231.001l-96.1709 -68.2559c-2.78613 -1.96973 -6.03711 -2.94727 -9.25684 -2.94727c-3.61914 0 -7.25391 1.2334 -10.2012 3.66797c-12.54 10.3457 -29.3877 21.8447 -48.9414 35.1689
c-18.2256 12.4277 -38.6123 26.4082 -59.1758 42.0391c-0.0966797 -0.112305 -0.12793 -0.255859 -0.224609 -0.352539l-42.4561 -43.3682c-3.34668 -3.41113 -7.73438 -5.125 -12.1064 -5.125c-4.38867 0 -8.76074 1.71387 -12.1074 5.125
c-6.74219 6.82227 -6.74219 17.8887 -0.0488281 24.7275l39.8613 40.71c-58.166 49.3418 -110.615 113.835 -110.615 200.027c0 80.3955 65.9014 145.784 146.905 145.784c41.7676 0 81.0049 -17.5195 108.662 -47.708c13.1328 16.0146 30.8936 31.8535 54.1309 36.6426
c8.66406 1.77734 17.1201 -3.78027 18.9141 -12.4277c1.77734 -8.63281 -3.78027 -17.1045 -12.4443 -18.8818c-20.4189 -4.19629 -36.5303 -25.1924 -46.8594 -40.6143c-2.96289 -4.43652 -7.95996 -7.09473 -13.293 -7.09473c-5.34863 0 -10.3291 2.6582 -13.292 7.09473
c-21.4121 31.9502 -57.2217 51.0234 -95.8018 51.0234c-63.3555 0 -114.908 -51.0557 -114.908 -113.818c0 -112.682 105.716 -184.766 182.908 -237.375c15.6943 -10.6973 29.7236 -20.2588 41.6064 -29.291l86.2246 61.1777
c63.8203 46.6035 137.265 112.185 137.265 205.488c0 0.52832 0.272461 18.1611 -6.51758 38.916c-2.75488 8.39258 1.8252 17.4248 10.2334 20.1631c8.47168 2.75488 17.4404 -1.8418 20.1787 -10.2178c8.56836 -26.2803 8.10352 -48.3486 8.08789 -49.2773z
M374.607 229.075c-3.09082 -3.10742 -7.27148 -4.82129 -11.5947 -4.82129c-0.672852 0 -1.33008 0.0322266 -2.00195 0.112305l-40.9502 5.06055l-68.2881 -80.0264c-2.96289 -3.47559 -6.93457 -5.22168 -10.8906 -5.22168c-3.7793 0 -7.55957 1.57031 -10.4736 4.77246
c-6.02148 6.51855 -6.19824 17.3125 -0.416992 24.1035l63.6279 74.5654l-4.86816 49.5029c-0.480469 4.90039 1.24902 9.75293 4.72461 13.2275l115.9 116.142c4.43555 4.46777 11.0498 5.97363 16.9756 3.8916c5.94141 -2.08203 10.1699 -7.36719 10.8906 -13.6289
l4.54785 -39.4453l38.8682 -4.16406c6.27832 -0.671875 11.6113 -4.90039 13.7256 -10.8574c2.08203 -5.99023 0.576172 -12.6201 -3.8916 -17.0889zM425.247 346.049c-7.62402 0.816406 -13.6611 6.82227 -14.5264 14.4609l-2.16211 18.7217l-86.417 -86.5928
l2.27441 -23.0781c2.06641 -0.78418 4.03613 -1.9375 5.70117 -3.76367c1.31348 -1.4248 2.22656 -3.12305 2.99512 -4.86816l23.9746 -2.96289l86.001 86.1768z" />
    <glyph glyph-name="uniF10E" unicode="&#xf10e;" 
d="M447.972 363.762l-171.762 -171.762l171.762 -171.748l-20.2236 -20.2236l-171.748 171.762l-171.762 -171.762l-20.21 20.2236l171.748 171.748l-171.748 171.762l20.21 20.21l171.762 -171.748l171.748 171.748z" />
    <glyph glyph-name="uniF119" unicode="&#xf119;" 
d="M494.029 166.929l-38.4688 -138.803c3.14062 -4.7959 3.65234 -10.8379 0.324219 -16.0088c-23.4326 -36.4033 -67.0723 -59.0508 -113.852 -59.0508c-0.170898 0 -0.307617 0.0859375 -0.477539 0.0859375c-0.154297 0 -0.291016 -0.0859375 -0.444336 -0.0859375
h-213.913c-7.74902 -10.3076 -19.542 -17.0664 -32.9219 -17.0664h-52.0195c-23.2959 0 -42.2568 20.1045 -42.2568 44.834v234.581c0 24.7305 18.9609 44.8516 42.2568 44.8516h52.0195c13.3633 0 25.1562 -6.75879 32.9043 -17.0664h11.3838
c50.4834 0 91.5625 41.335 91.5625 92.1426v40.9775c0 39.5264 31.9492 71.6797 71.2188 71.6797c39.2705 0 71.2197 -32.1533 71.2197 -71.6797v-13.6533c0 -38.4512 -4.77832 -76.6299 -14.2168 -113.477c-0.290039 -1.14355 -0.699219 -2.26953 -1.22852 -3.32812
c-0.341797 -0.750977 -0.682617 -1.70703 -0.956055 -2.64551h67.2773c39.2705 0 71.2188 -32.1533 71.2188 -71.6797c0 -1.57031 -0.22168 -3.12305 -0.630859 -4.6084zM104.021 215.415c0 5.71777 -4.36914 10.3604 -9.74512 10.3604h-52.0195
c-5.37598 0 -9.74512 -4.64258 -9.74512 -10.3604v-234.563c0 -5.71777 4.36914 -10.3428 9.74512 -10.3428h52.0195c5.37598 0 9.74512 4.625 9.74512 10.3428v234.563zM423.441 209.066h-67.8232c-17.1348 0 -25.5146 7.76562 -29.542 14.3018
c-8.3291 13.5342 -2.81641 29.6963 -0.188477 35.7891c8.46582 33.6211 12.7666 68.4375 12.7666 103.51v13.6533c0 20.7012 -16.7432 37.5459 -37.3086 37.5459c-20.582 0 -37.3076 -16.8447 -37.3076 -37.5459v-40.96c0 -69.6328 -56.2852 -126.276 -125.474 -126.276
h-2.03125v-221.867h204.562c2.69629 0 5.1709 -0.716797 7.44043 -1.80859c28.1602 1.74023 54.1191 14.5742 70.793 34.9521c-0.102539 1.84375 -0.119141 3.70312 0.40918 5.56348l40.96 147.713c-1.10938 19.7285 -17.3906 35.4297 -37.2559 35.4297zM68.2666 4.2666
c-9.40332 0 -17.0664 7.66309 -17.0664 17.0664c0 9.4209 7.66309 17.0674 17.0664 17.0674s17.0664 -7.66309 17.0664 -17.0674c0 -9.40332 -7.66309 -17.0664 -17.0664 -17.0664zM68.2666 23.2275c-1.04102 0 -1.89453 -0.853516 -1.89453 -1.89453
c0 -2.06445 3.78906 -2.06445 3.78906 0c0 1.04102 -0.853516 1.89453 -1.89453 1.89453z" />
    <glyph glyph-name="uniF11F" unicode="&#xf11f;" 
d="M72 176.32c-2.71973 0 -5.38672 0.160156 -8 0.479492v-192.8c0 -8.7998 7.2002 -16 16 -16h80v64.0537v0c0.0537109 44.1592 35.8398 79.9463 80 79.9463s79.9463 -35.7871 80 -79.9463v0v-64.0537h80c8.7998 0 16 7.2002 16 16v128c0 8.85352 7.14648 16 16 16
s16 -7.14648 16 -16v-128c0 -26.4531 -21.5469 -48 -48 -48h-90.3467h-5.22656c-9.06641 0 -16.4268 7.36035 -16.4268 16.4268v79.5732c0 26.4531 -21.5469 48 -48 48s-48 -21.5469 -48 -48v-80v0v-0.426758c0 -9.06641 -7.36035 -15.5732 -16.4268 -15.5732h-95.5732
c-26.4531 0 -48 21.5469 -48 48v204.427c-19.3066 12.9062 -32 34.8262 -32 59.7334c0 0 0 7.30664 1.86621 11.7861c6.93359 16.7471 34.0273 80.8535 46.2939 108.054c8.90625 19.7334 20.4795 48 47.8398 48h288c26.8799 0 38.9336 -22.9336 47.627 -46.5596
l47.1465 -110.561c1.17285 -4.10645 1.22656 -9.49316 1.22656 -9.49316c0 -34.9863 -28.2666 -68 -62.9336 -72.6934c-3.41309 -0.480469 -6.82617 -0.693359 -10.1328 -0.693359c-16.4805 0 -31.4668 5.54688 -43.4141 14.8262
c-7.19922 5.6543 -17.4395 5.70703 -24.6924 0.107422c-12.1074 -9.33398 -27.3604 -14.9336 -43.8936 -14.9336c-16.4268 0 -31.5732 5.54688 -43.6807 14.7734c-7.30664 5.59961 -17.3867 5.59961 -24.6934 0c-12.1064 -9.28027 -27.2529 -14.7734 -43.6797 -14.7734
c-16.2666 0 -31.3604 5.38672 -43.4131 14.5596c-7.2002 5.49414 -17.1201 5.49414 -24.373 0.0537109c-12 -8.95996 -26.9336 -14.293 -43.0938 -14.293zM32 248.16c0 -21.9736 17.9199 -39.8398 40.0537 -39.8398c18.4531 0 34.8262 12.5859 39.4658 29.5459
c0.320312 1.17383 0.480469 2.34668 0.586914 3.57422c0.74707 8.15918 7.62695 14.5596 15.9473 14.5596c8.31934 0 15.1465 -5.01367 15.8926 -15.0938c0.107422 -1.5459 0.320312 -3.14648 0.800781 -4.63965c5.0127 -16.373 20.2129 -28.2666 38.1865 -28.2666
c18.5068 0 35.8936 12.6934 40.5332 29.8135c0.320312 1.17285 0.479492 2.39941 0.586914 3.62695c0.746094 8.15918 7.62598 14.5596 15.9463 14.5596c8.37305 0 15.2529 -6.40039 16 -14.5596c0.106445 -1.17383 0.212891 -2.40039 0.533203 -3.52051
c4.48047 -17.2266 19.8936 -29.9199 38.4531 -29.9199c18.5068 0 35.8936 12.6934 40.5332 29.8135c0.320312 1.17285 0.480469 2.39941 0.586914 3.62695c0.74707 8.15918 7.62695 14.5596 15.9473 14.5596c8.42676 0 15.3066 -6.45312 15.9463 -14.7197
c0.0537109 -1.12012 0.212891 -2.24023 0.480469 -3.30664c4.31934 -17.4404 20.0527 -29.9736 38.5059 -29.9736c22.0801 0 41.0674 17.9199 41.0674 40c0 1.65332 -0.107422 3.30664 -0.320312 4.90625c-0.266602 1.81348 -0.74707 3.62695 -1.49316 5.33398
c0 0 -45.707 106.24 -46.5068 108.267c-3.67969 9.28027 -9.65332 17.4932 -19.7334 17.4932h-268h-13.333c-10.0801 0 -13.8672 -7.67969 -18.3467 -17.4404c-4.42676 -9.8125 -46.7734 -106.933 -46.7734 -106.933c-1.28027 -2.93359 -1.65332 -6.4541 -1.65332 -9.28027
c0.0527344 -0.74707 0.106445 -1.44043 0.106445 -2.18652z" />
    <glyph glyph-name="uniF10F" unicode="&#xf10f;" 
d="M256 448c141.385 0 256 -114.615 256 -256s-114.615 -256 -256 -256s-256 114.615 -256 256s114.615 256 256 256zM393.289 80.3291l-102.546 102.528l102.527 102.527l-25.6182 25.6191l-102.527 -102.528l-102.51 102.528l-25.6367 -25.6191l102.546 -102.527
l-102.528 -102.528l25.6367 -25.5996l102.51 102.51l102.528 -102.51z" />
    <glyph glyph-name="uniF110" unicode="&#xf110;" 
d="M241.807 320.113v-142.222h142.222v-28.4443h-170.667v170.666h28.4453zM256.028 419.669c125.668 0 227.556 -101.888 227.556 -227.556c0 -125.667 -101.888 -227.555 -227.556 -227.555c-125.667 0 -227.556 101.888 -227.556 227.555
c0 125.668 101.889 227.556 227.556 227.556zM256.028 -7.16797c109.967 0 199.111 89.1445 199.111 199.111c0 109.966 -89.1445 199.111 -199.111 199.111c-109.966 0 -199.111 -89.1455 -199.111 -199.111c0 -109.967 89.1455 -199.111 199.111 -199.111z" />
  </font>
</defs>
</svg>
